<svg viewBox="0 0 40.642 40.6431" xmlns="http://www.w3.org/2000/svg" xmlns:xlink="http://www.w3.org/1999/xlink" width="40.641968" height="40.643066" fill="none" customFrame="#000000">
	<g id="Сочетание 9">
		<path id="Форма 12" d="M19.0217 14.3802C19.1194 14.4829 19.1884 14.6094 19.2217 14.7472C19.255 14.8849 19.2514 15.029 19.2114 15.165C19.1714 15.3009 19.0963 15.424 18.9937 15.5217L13.3399 20.9063C13.2381 21.0083 13.1108 21.0812 12.9714 21.1174C12.8319 21.1537 12.6853 21.1519 12.5467 21.1124C12.4081 21.0729 12.2827 20.997 12.1833 20.8926C12.0839 20.7883 12.0143 20.6592 11.9816 20.5189C11.9489 20.3786 11.9544 20.232 11.9974 20.0945C12.0404 19.957 12.1195 19.8335 12.2263 19.7368L17.8802 14.3522C17.9828 14.2545 18.1094 14.1855 18.2472 14.1522C18.3849 14.1189 18.529 14.1225 18.665 14.1625C18.8009 14.2025 18.924 14.2776 19.0217 14.3802Z" fill="rgb(186,186,186)" fill-rule="evenodd" />
		<path id="Форма 13" d="M12.1983 19.7647C12.296 19.6621 12.4191 19.587 12.555 19.547C12.691 19.507 12.8351 19.5035 12.9728 19.5368C13.1106 19.5701 13.2371 19.639 13.3398 19.7367L18.9936 25.1213C19.1122 25.2401 19.1908 25.3928 19.2186 25.5582C19.2464 25.7237 19.2219 25.8937 19.1487 26.0446C19.0755 26.1955 18.957 26.3199 18.8099 26.4005C18.6627 26.481 18.4941 26.5138 18.3275 26.4941C18.1609 26.4745 18.0045 26.4034 17.8801 26.2909L12.2263 20.9063C12.1237 20.8085 12.0486 20.6855 12.0086 20.5495C11.9686 20.4136 11.965 20.2695 11.9983 20.1317C12.0316 19.994 12.1006 19.8674 12.1983 19.7647L12.1983 19.7647Z" fill="rgb(186,186,186)" fill-rule="evenodd" />
		<path id="Форма 14" d="M11.9753 20.3215C11.9753 20.1797 12.0127 20.0404 12.0836 19.9176C12.1544 19.7949 12.2564 19.6929 12.3792 19.622C12.502 19.5511 12.6413 19.5138 12.783 19.5138L27.86 19.5138C28.0305 19.5138 28.1967 19.5678 28.3347 19.6681C28.4727 19.7683 28.5754 19.9097 28.6281 20.0719C28.6808 20.2341 28.6808 20.4089 28.6281 20.5711C28.5754 20.7333 28.4727 20.8747 28.3347 20.9749C28.1967 21.0752 28.0305 21.1292 27.86 21.1292L12.783 21.1292C12.6413 21.1292 12.502 21.0919 12.3792 21.021C12.2564 20.9501 12.1544 20.8481 12.0836 20.7253C12.0127 20.6025 11.9753 20.4633 11.9753 20.3215L11.9753 20.3215Z" fill="rgb(186,186,186)" fill-rule="evenodd" />
		<path id="Форма 15" d="M20.3215 1.61431C9.99062 1.61431 1.61538 9.98954 1.61538 20.3215C1.61538 30.6535 9.99062 39.0277 20.3215 39.0277C30.6525 39.0277 39.0277 30.6525 39.0277 20.3215C39.0277 9.98954 30.6535 1.61538 20.3215 1.61538L20.3215 1.61431ZM6.41896e-08 20.3215C-0.00107691 9.09785 9.09785 0 20.3205 0C31.5431 0 40.642 9.09785 40.642 20.3215C40.642 31.5452 31.5442 40.6431 20.3205 40.6431C9.09677 40.6431 6.41896e-08 31.5463 6.41896e-08 20.3226L6.41896e-08 20.3215Z" fill="rgb(186,186,186)" fill-rule="evenodd" />
	</g>
</svg>
